<?xml version="1.0" encoding="utf-8"?>
<!-- Generator: Adobe Illustrator 28.0.0, SVG Export Plug-In . SVG Version: 6.00 Build 0)  -->
<svg version="1.1" id="Layer_1" xmlns="http://www.w3.org/2000/svg" xmlns:xlink="http://www.w3.org/1999/xlink" x="0px" y="0px"
	 viewBox="0 0 132 24" style="enable-background:new 0 0 132 24;" xml:space="preserve">
<g>
	<path d="M6.9,19.7l1.3-1.4c0.5,0.4,1,0.7,1.6,0.9c0.6,0.2,1.3,0.3,1.9,0.3c0.8,0,1.4-0.2,1.8-0.5c0.4-0.3,0.7-0.7,0.7-1.3
		c0-1-0.5-1.5-1.6-1.7c-0.3,0-0.6-0.1-0.8-0.1s-0.5-0.1-0.9-0.1c-1.1-0.1-1.9-0.5-2.5-1.2c-0.6-0.6-0.9-1.4-0.9-2.3
		c0-1.1,0.4-1.9,1.1-2.6c0.7-0.7,1.7-1,3-1c0.8,0,1.5,0.1,2.2,0.4c0.7,0.2,1.3,0.6,1.9,0.9l-1.1,1.6c-0.5-0.3-1-0.5-1.5-0.7
		s-1.1-0.3-1.6-0.3c-0.6,0-1.1,0.1-1.5,0.4c-0.4,0.3-0.6,0.7-0.6,1.3c0,0.4,0.1,0.7,0.4,1c0.3,0.3,0.7,0.5,1.4,0.6
		c0.2,0,0.4,0.1,0.6,0.1c0.2,0,0.5,0.1,0.8,0.1c1.2,0.1,2,0.6,2.6,1.3c0.6,0.7,0.8,1.5,0.8,2.3c0,1.1-0.4,2-1.2,2.7
		c-0.8,0.6-1.9,0.9-3.2,0.9C9.8,21.4,8.2,20.9,6.9,19.7z"/>
	<path d="M18.1,14.7V1.5H20v13.2H18.1z"/>
	<path d="M22.6,21.4V4.6h1.8l3.6,11l3.5-11h1.8v16.8h-1.9V10.9l0,0L28.8,19h-1.6l-2.6-8.1l0,0v10.5H22.6z"/>
	<path d="M35.6,9.2c0-1.1,0-1.8,0.1-2.2c0.1-0.3,0.2-0.6,0.4-0.9c0.3-0.4,0.8-0.8,1.4-1.1C38.2,4.6,39,4.5,40,4.5s1.8,0.2,2.5,0.5
		c0.7,0.4,1.2,0.7,1.5,1.1c0.2,0.3,0.3,0.6,0.4,0.9c0.1,0.3,0.1,1,0.1,2.2c0,1.1,0,1.8-0.1,2.2c-0.1,0.3-0.2,0.6-0.4,0.9
		c-0.3,0.4-0.8,0.8-1.5,1.1S41,13.9,40,13.9s-1.8-0.2-2.5-0.5s-1.1-0.7-1.4-1.1c-0.2-0.3-0.4-0.6-0.4-0.9
		C35.6,11,35.6,10.3,35.6,9.2z M37.5,9.2c0,1,0,1.6,0.1,1.9c0.1,0.3,0.3,0.5,0.5,0.8c0.2,0.2,0.4,0.3,0.8,0.5
		c0.3,0.1,0.7,0.2,1.2,0.2c0.4,0,0.8-0.1,1.2-0.2c0.3-0.1,0.6-0.3,0.8-0.5s0.4-0.5,0.5-0.8s0.1-0.9,0.1-1.9c0-0.9,0-1.6-0.1-1.8
		c-0.1-0.3-0.3-0.5-0.5-0.8c-0.2-0.2-0.4-0.3-0.8-0.5C40.9,6,40.5,5.9,40,5.9c-0.4,0-0.8,0.1-1.2,0.2c-0.3,0.1-0.6,0.3-0.8,0.5
		s-0.4,0.5-0.5,0.8C37.5,7.6,37.5,8.2,37.5,9.2z"/>
	<path d="M47.6,16.3l1-1.7c0.5,0.3,1.1,0.5,1.8,0.6c0.6,0.1,1.3,0.1,2,0c0.8-0.1,1.3-0.4,1.7-0.8c0.4-0.4,0.5-0.9,0.4-1.4
		c-0.2-1-0.8-1.5-1.9-1.4c-0.3,0-0.6,0-0.8,0s-0.5,0-0.9,0c-1.1,0-2-0.2-2.7-0.8s-1.1-1.3-1.3-2.3c-0.2-1.1,0-2.1,0.5-2.9
		C48,4.8,48.9,4.2,50.2,4c0.8-0.1,1.5-0.2,2.2,0c0.7,0.1,1.4,0.3,2,0.6l-0.7,1.8c-0.5-0.2-1-0.4-1.6-0.4c-0.6-0.1-1.1-0.1-1.6,0
		c-0.6,0.1-1,0.4-1.4,0.7c-0.3,0.4-0.5,0.9-0.3,1.5c0.1,0.4,0.3,0.7,0.6,1s0.8,0.4,1.5,0.4c0.2,0,0.4,0,0.6,0c0.2,0,0.5,0,0.8,0
		c1.2-0.1,2.1,0.2,2.8,0.8s1.1,1.4,1.3,2.3c0.2,1.2,0,2.2-0.7,3c-0.7,0.8-1.7,1.3-3,1.6C50.8,17.5,49.1,17.2,47.6,16.3z"/>
	<path d="M59,14.7V3.3h-3.4V1.5h8.8v1.8H61v11.4H59z"/>
	<path d="M64.3,13V5.9h2.1v6.9c0,0.7,0.3,1.3,0.8,1.7c0.6,0.4,1.2,0.6,2,0.6s1.5-0.2,2.1-0.6c0.6-0.4,0.8-1,0.8-1.7V5.9h2.1V13
		c0,1.1-0.5,2-1.5,2.7s-2.2,1-3.6,1s-2.6-0.3-3.6-1C64.8,15,64.3,14.1,64.3,13z"/>
	<path d="M76.8,17.8v-9h4.4c1.7,0,3,0.5,3.8,1.5c0.3,0.4,0.5,0.7,0.6,1.1c0.1,0.3,0.1,1,0.1,1.9c0,1,0,1.7-0.1,2s-0.3,0.7-0.6,1
		c-0.4,0.4-0.9,0.8-1.5,1.1c-0.7,0.3-1.4,0.4-2.4,0.4H76.8z M78.7,10v6.4H81c1,0,1.8-0.3,2.3-0.8c0.2-0.2,0.3-0.5,0.4-0.7
		c0.1-0.3,0.1-0.8,0.1-1.7c0-0.8,0-1.4-0.1-1.7s-0.2-0.6-0.5-0.8C82.7,10.3,81.9,10,81,10H78.7z"/>
	<path d="M87.9,17.8V4.6h1.9v13.2H87.9z"/>
	<path d="M92,13c0-2,0-3.3,0.1-3.9c0.1-0.6,0.2-1.1,0.4-1.6c0.3-0.7,0.8-1.4,1.4-2s1.5-1,2.5-1s1.8,0.3,2.5,1c0.7,0.6,1.2,1.3,1.5,2
		c0.2,0.5,0.3,1,0.4,1.6s0.1,1.9,0.1,3.9s0,3.3-0.1,3.9s-0.2,1.1-0.4,1.6c-0.3,0.7-0.8,1.4-1.5,2s-1.5,0.9-2.5,0.9s-1.8-0.3-2.5-0.9
		s-1.1-1.3-1.4-2c-0.2-0.5-0.4-1-0.4-1.6S92,15,92,13z M93.9,13c0,1.7,0,2.8,0.1,3.3c0.1,0.5,0.3,1,0.5,1.4c0.2,0.3,0.4,0.6,0.8,0.9
		c0.3,0.2,0.7,0.4,1.2,0.4c0.4,0,0.8-0.1,1.2-0.4c0.3-0.2,0.6-0.5,0.8-0.9c0.2-0.4,0.4-0.9,0.5-1.4s0.1-1.6,0.1-3.3s0-2.8-0.1-3.3
		s-0.3-1-0.5-1.4c-0.2-0.3-0.4-0.6-0.8-0.8C97.3,7.1,97,7,96.5,7c-0.4,0-0.8,0.1-1.2,0.4c-0.3,0.2-0.6,0.5-0.8,0.8
		c-0.2,0.4-0.4,0.9-0.5,1.4S93.9,11.3,93.9,13z"/>
</g>
</svg>
